<?xml version="1.0" encoding="iso-8859-1"?>
<!-- Generator: Adobe Illustrator 16.0.0, SVG Export Plug-In . SVG Version: 6.00 Build 0)  -->
<!DOCTYPE svg PUBLIC "-//W3C//DTD SVG 1.1//EN" "http://www.w3.org/Graphics/SVG/1.1/DTD/svg11.dtd">
<svg version="1.1" id="Capa_1" xmlns="http://www.w3.org/2000/svg" xmlns:xlink="http://www.w3.org/1999/xlink" x="0px" y="0px"
	 width="94px" height="94px" viewBox="0 0 94 94" style="enable-background:new 0 0 94 94;" xml:space="preserve">
<g>
	<g>
		<circle cx="37.65" cy="47" r="11.807"/>
		<path d="M89,0H5C2.238,0,0,2.239,0,5v84c0,2.761,2.238,5,5,5h84c2.762,0,5-2.239,5-5V5C94,2.239,91.762,0,89,0z M72.1,20.499
			h12.691v12.035l-3.238,23.071h-5.832L72.1,32.468V20.499z M37.65,74.529c-16.182,0-29.301-12.413-29.301-27.586
			c0-15.172,13.119-27.473,29.301-27.473c16.184,0,29.305,12.3,29.305,27.473C66.955,62.116,53.834,74.529,37.65,74.529z
			 M78.561,74.018c-3.916,0-7.09-3.175-7.09-7.091s3.174-7.09,7.09-7.09s7.09,3.174,7.09,7.09S82.477,74.018,78.561,74.018z"/>
	</g>
</g>
<g>
</g>
<g>
</g>
<g>
</g>
<g>
</g>
<g>
</g>
<g>
</g>
<g>
</g>
<g>
</g>
<g>
</g>
<g>
</g>
<g>
</g>
<g>
</g>
<g>
</g>
<g>
</g>
<g>
</g>
</svg>
